<?xml version="1.0" encoding="utf-8"?>
<!-- Generator: Adobe Illustrator 26.0.0, SVG Export Plug-In . SVG Version: 6.00 Build 0)  -->
<svg version="1.1" id="Layer_1" xmlns="http://www.w3.org/2000/svg" xmlns:xlink="http://www.w3.org/1999/xlink" x="0px" y="0px"
	 viewBox="0 0 512 512" style="enable-background:new 0 0 512 512;" xml:space="preserve">
<style type="text/css">
	.st0{fill:#FFFFFF;}
</style>
<g>
	<g>
		<path class="st0" d="M409.9,222.3c-7.8,0-15.4,0.9-22.9,2.6c3.5-10.6,5.3-21.8,5.3-33c0-29.8-12.7-58.5-34.7-78.6
			c-3.3-3-8.3-2.8-11.3,0.5c-3,3.3-2.7,8.3,0.5,11.3c18.7,17.1,29.5,41.4,29.5,66.8c0,14.7-3.6,29.4-10.5,42.3
			c-1.6,3-1.1,6.7,1.2,9.2c2.3,2.5,6,3.3,9.1,1.9c10.7-4.6,22.2-7,33.9-7c47.4,0,86,38.6,86,86s-38.6,86-86,86H264.6
			c-4.4,0-8,3.6-8,8c0,4.4,3.6,8,8,8h145.4c56.3,0,102.1-45.8,102.1-102.1S466.2,222.3,409.9,222.3z"/>
	</g>
</g>
<g>
	<g>
		<path class="st0" d="M327.6,94c-13.2-5.6-27.2-8.5-41.6-8.5c-58.6,0-106.4,47.7-106.4,106.4v226.6c0,4.4,3.6,8,8,8h42.8
			c4.4,0,8-3.6,8-8c0-4.4-3.6-8-8-8h-34.7V191.9c0-49.8,40.5-90.3,90.3-90.3c12.3,0,24.2,2.4,35.3,7.2c4.1,1.7,8.8-0.2,10.5-4.2
			C333.5,100.4,331.6,95.7,327.6,94z"/>
	</g>
</g>
<g>
	<g>
		<path class="st0" d="M161.9,205.2c-4.4,0-8,3.6-8,8v205.2c0,4.4,3.6,8,8,8c4.4,0,8-3.6,8-8V213.2
			C170,208.8,166.4,205.2,161.9,205.2z"/>
	</g>
</g>
<g>
	<g>
		<path class="st0" d="M136.3,198.8c-4.4,0-8,3.6-8,8v211.6c0,4.4,3.6,8,8,8s8-3.6,8-8V206.8C144.3,202.4,140.7,198.8,136.3,198.8z"
			/>
	</g>
</g>
<g>
	<g>
		<path class="st0" d="M110.6,222.3c-4.4,0-8,3.6-8,8v188.1c0,4.4,3.6,8,8,8s8-3.6,8-8V230.3C118.6,225.9,115.1,222.3,110.6,222.3z"
			/>
	</g>
</g>
<g>
	<g>
		<path class="st0" d="M85,282.2c-4.4,0-8,3.6-8,8v128.3c0,4.4,3.6,8,8,8c4.4,0,8-3.6,8-8V290.2C93,285.8,89.4,282.2,85,282.2z"/>
	</g>
</g>
<g>
	<g>
		<path class="st0" d="M59.3,275.8c-4.4,0-8,3.6-8,8v132.5c0,4.4,3.6,8,8,8c4.4,0,8-3.6,8-8V283.8C67.3,279.4,63.8,275.8,59.3,275.8
			z"/>
	</g>
</g>
<g>
	<g>
		<path class="st0" d="M33.7,288.7c-4.4,0-8,3.6-8,8v106.8c0,4.4,3.6,8,8,8c4.4,0,8-3.6,8-8V296.7C41.7,292.3,38.1,288.7,33.7,288.7
			z"/>
	</g>
</g>
<g>
	<g>
		<path class="st0" d="M8,324.9c-4.4,0-8,3.6-8,8v34.2c0,4.4,3.6,8,8,8c4.4,0,8-3.6,8-8V333C16,328.5,12.4,324.9,8,324.9z"/>
	</g>
</g>
</svg>
